<?xml version="1.0" encoding="UTF-8"?>
<svg version="1.1" xmlns="http://www.w3.org/2000/svg" width="618" height="154">
<path d="M0 0 C203.94 0 407.88 0 618 0 C618 50.82 618 101.64 618 154 C414.06 154 210.12 154 0 154 C0 103.18 0 52.36 0 0 Z " fill="#A81318" transform="translate(0,0)"/>
<path d="M0 0 C203.94 0 407.88 0 618 0 C618 50.82 618 101.64 618 154 C414.06 154 210.12 154 0 154 C0 103.18 0 52.36 0 0 Z M21 22 C21 57.64 21 93.28 21 130 C211.08 130 401.16 130 597 130 C597 94.36 597 58.72 597 22 C406.92 22 216.84 22 21 22 Z " fill="#262B5D" transform="translate(0,0)"/>
<path d="M0 0 C189.75 0 379.5 0 575 0 C575 17.82 575 35.64 575 54 C549.92 54 524.84 54 499 54 C499 50.04 499 46.08 499 42 C494.71 42 490.42 42 486 42 C486 40.35 486 38.7 486 37 C490.62 37 495.24 37 500 37 C500 29.74 500 22.48 500 15 C475.91 15 451.82 15 427 15 C427 17.97 427 20.94 427 24 C426.72584328 26.19570159 426.40023068 28.3862457 426 30.5625 C425.814375 31.59503906 425.62875 32.62757812 425.4375 33.69140625 C425.293125 34.45324219 425.14875 35.21507812 425 36 C422.68434948 33.68434948 422.49729936 32.59344676 421.875 29.4375 C421.70742188 28.63183594 421.53984375 27.82617188 421.3671875 26.99609375 C420.880537 23.02523275 421 19.00057068 421 15 C409.78 15 398.56 15 387 15 C387 27.54 387 40.08 387 53 C386.34 53 385.68 53 385 53 C384.52023285 48.54173107 384.04129633 44.08337328 383.5625 39.625 C383.42779297 38.37332031 383.29308594 37.12164062 383.15429688 35.83203125 C382.95610352 33.98544922 382.95610352 33.98544922 382.75390625 32.1015625 C382.63345947 30.98088379 382.5130127 29.86020508 382.38891602 28.70556641 C381.90960575 24.13872951 381.45691321 19.56913207 381 15 C369.45 15 357.9 15 346 15 C345.67 20.28 345.34 25.56 345 31 C344.54123074 34.21376188 344.06855797 37.32961306 343.4375 40.5 C343.29892578 41.23863281 343.16035156 41.97726563 343.01757812 42.73828125 C342.68698791 44.49382929 342.34491771 46.24721062 342 48 C341.67 48 341.34 48 341 48 C340.97812622 47.13834229 340.97812622 47.13834229 340.95581055 46.25927734 C340.88086275 43.63054304 340.78436006 41.00301448 340.6875 38.375 C340.66494141 37.47136719 340.64238281 36.56773438 340.61914062 35.63671875 C340.37064059 29.44680883 339.71403143 24.70835354 335.1328125 20.13671875 C334.47023438 19.65847656 333.80765625 19.18023437 333.125 18.6875 C332.46757812 18.19636719 331.81015625 17.70523438 331.1328125 17.19921875 C326.10121394 14.37009648 320.3134265 14.75317229 314.6875 14.6875 C313.87087891 14.65849609 313.05425781 14.62949219 312.21289062 14.59960938 C305.56271011 14.53072304 300.64339871 16.1276733 295.40112305 20.26049805 C292.10246672 24.35579798 291.7370146 29.18717525 291.5859375 34.2734375 C291.55032715 35.31419434 291.5147168 36.35495117 291.47802734 37.42724609 C291.42702881 39.38138428 291.42702881 39.38138428 291.375 41.375 C291.25125 45.54125 291.1275 49.7075 291 54 C282.42 54 273.84 54 265 54 C264.79503906 51.95296875 264.59007812 49.9059375 264.37890625 47.796875 C264.17721263 45.80775857 263.97549808 43.81864421 263.77319336 41.82958984 C263.63346746 40.45046445 263.49478434 39.07123299 263.35717773 37.69189453 C263.15885233 35.70577663 262.95642733 33.72006946 262.75390625 31.734375 C262.63345947 30.54038086 262.5130127 29.34638672 262.38891602 28.11621094 C262.08009983 25.64180431 261.79501148 23.35947926 261 21 C259.31980946 19.82342532 259.31980946 19.82342532 257 19 C255.96351318 18.49621826 254.92702637 17.99243652 253.85913086 17.47338867 C249.91790829 15.7866316 246.12701669 15.52664457 241.87890625 15.48828125 C240.76176491 15.46135445 240.76176491 15.46135445 239.62205505 15.43388367 C237.26892577 15.3801769 234.91599456 15.34601457 232.5625 15.3125 C230.95635287 15.27929171 229.35023176 15.24479885 227.74414062 15.20898438 C223.82957101 15.12447426 219.91505606 15.05747629 216 15 C216 17.97 216 20.94 216 24 C215.34 23.67 214.68 23.34 214 23 C214 22.34 214 21.68 214 21 C213.401875 20.71125 212.80375 20.4225 212.1875 20.125 C210 19 210 19 207 17 C202.35667013 15.95375252 197.71759876 15.79463967 192.9765625 15.68359375 C191.98305786 15.65561707 191.98305786 15.65561707 190.96948242 15.6270752 C188.52144292 15.55934676 186.07320798 15.49883705 183.625 15.4375 C175.395625 15.2209375 175.395625 15.2209375 167 15 C167 27.54 167 40.08 167 53 C164.78795188 49.68192782 164.48175835 47.7384853 163.9296875 43.828125 C163.75566406 42.60609375 163.58164063 41.3840625 163.40234375 40.125 C163.22832031 38.84625 163.05429688 37.5675 162.875 36.25 C162.60236328 34.35507813 162.60236328 34.35507813 162.32421875 32.421875 C161.49442483 26.48229749 161 21.03611036 161 15 C149.78 15 138.56 15 127 15 C126.67 17.97 126.34 20.94 126 24 C125.62339457 26.48366868 125.22678941 28.96440117 124.80859375 31.44140625 C124.69902847 32.09455307 124.5894632 32.74769989 124.47657776 33.42063904 C124.13253995 35.46832519 123.78509094 37.51541433 123.4375 39.5625 C123.20094382 40.96675848 122.96461392 42.37105509 122.72851562 43.77539062 C122.15536696 47.18411691 121.57758904 50.59201155 121 54 C113.08 54 105.16 54 97 54 C97 52.02 97 50.04 97 48 C108.385 47.505 108.385 47.505 120 47 C120.04125 43.65875 120.0825 40.3175 120.125 36.875 C120.14320801 35.83327637 120.16141602 34.79155273 120.18017578 33.71826172 C120.20937506 28.82125943 120.22237502 24.48890319 118 20 C116.515 19.505 116.515 19.505 115 19 C115 18.34 115 17.68 115 17 C108.32068595 15.29102158 102.19563954 14.66282925 95.3125 14.6875 C94.40177734 14.67138672 93.49105469 14.65527344 92.55273438 14.63867188 C86.11282935 14.63399511 81.87603326 15.68319543 76.75 19.8125 C69.55501794 28.80622757 72.35509792 44.76745409 72 54 C48.24 54 24.48 54 0 54 C0 36.18 0 18.36 0 0 Z " fill="#EA1C24" transform="translate(21,22)"/>
<path d="M0 0 C203.94 0 407.88 0 618 0 C618 25.08 618 50.16 618 76 C613.38 76 608.76 76 604 76 C604 56.2 604 36.4 604 16 C600.41856685 14.20928343 599.4471294 13.74997089 595.76844496 13.748151 C594.92454223 13.74288774 594.0806395 13.73762448 593.21116397 13.73220173 C592.28719617 13.73659821 591.36322838 13.74099469 590.41126156 13.74552441 C588.92920389 13.74071469 588.92920389 13.74071469 587.41720566 13.73580781 C584.08015743 13.72745412 580.74328617 13.73345082 577.40623474 13.73930359 C575.00016078 13.73628536 572.59408777 13.73239755 570.18801647 13.72771102 C564.94322951 13.71954136 559.69847819 13.71764221 554.45368767 13.72121429 C546.65468565 13.72651203 538.85572155 13.72043544 531.05672365 13.71213136 C516.31956966 13.69687177 501.58243282 13.69518825 486.84527259 13.69765439 C475.46857848 13.69948519 464.09189001 13.69773193 452.71519661 13.69342995 C451.08223956 13.69282755 449.44928252 13.69222636 447.81632547 13.69162634 C445.35580451 13.69071912 442.89528355 13.68981045 440.43476259 13.68889399 C417.55171757 13.68046166 394.66867468 13.67613077 371.78562832 13.68030071 C370.92256051 13.68045709 370.05949269 13.68061346 369.17027131 13.68077458 C364.79563027 13.6815804 360.42098924 13.68242617 356.04634821 13.68328788 C354.7430569 13.68354451 354.7430569 13.68354451 353.41343647 13.68380633 C351.65638876 13.68415298 349.89934105 13.68450151 348.14229334 13.68485192 C320.79187097 13.69021123 293.44148082 13.68227388 266.09106445 13.66381836 C235.38263777 13.64312133 204.67423106 13.63237113 173.96579701 13.63639385 C170.69419388 13.63678921 167.42259076 13.63715076 164.15098763 13.63749123 C163.34539917 13.63758196 162.53981071 13.63767269 161.70981047 13.63776617 C149.52791599 13.63893405 137.34604161 13.63226947 125.16415215 13.62167931 C111.31790786 13.60965475 97.47170798 13.60803665 83.62546306 13.62046947 C75.86978392 13.62712104 68.11421083 13.62541441 60.35854007 13.61188096 C54.58001386 13.6027186 48.80159079 13.60909759 43.02307499 13.62172876 C40.67591589 13.62440139 38.32874457 13.62192988 35.98159736 13.61399289 C32.80849918 13.60400173 29.63597158 13.6122097 26.4628973 13.62526989 C25.53658834 13.61796054 24.61027938 13.6106512 23.65590045 13.60312036 C22.81450124 13.61037469 21.97310203 13.61762902 21.10620588 13.62510318 C20.38007515 13.62508271 19.65394442 13.62506225 18.90580973 13.62504117 C16.42330249 14.11346244 15.53195106 15.0201306 14 17 C13.52622912 19.68210078 13.52622912 19.68210078 13.56762695 22.7565918 C13.54783279 23.93758957 13.52803864 25.11858734 13.50764465 26.33537292 C13.49805977 28.24797661 13.49805977 28.24797661 13.48828125 30.19921875 C13.47033005 31.50454056 13.45237885 32.80986237 13.43388367 34.15473938 C13.38636947 37.62182596 13.35656978 41.08884741 13.33044434 44.55615234 C13.30064563 48.09550848 13.25411304 51.63464013 13.20898438 55.17382812 C13.12293537 62.11577272 13.05714429 69.05775792 13 76 C8.71 76 4.42 76 0 76 C0 50.92 0 25.84 0 0 Z " fill="#3762AE" transform="translate(0,0)"/>
<path d="M0 0 C7.92 0 15.84 0 24 0 C25.56647506 4.69942519 26.53048456 8.61821129 27.25390625 13.453125 C27.35968491 14.15338806 27.46546356 14.85365112 27.57444763 15.57513428 C27.79622001 17.05052539 28.01542164 18.52630499 28.23217773 20.00244141 C28.55962363 22.23042878 28.89531303 24.45705017 29.23242188 26.68359375 C30.34618388 34.10784345 31.34208704 41.51901222 32 49 C33.49393858 43.02424567 34.31454105 37.33826115 34.65625 31.1875 C34.93539891 28.59902831 35.3660133 26.27581934 35.9609375 23.75390625 C37.10015211 18.8437471 37.65021971 13.94931629 38.125 8.9375 C38.41375 5.988125 38.7025 3.03875 39 0 C47.25 0 55.5 0 64 0 C64 22.44 64 44.88 64 68 C59.38 68 54.76 68 50 68 C49.67 52.49 49.34 36.98 49 21 C47.68328883 26.92520026 46.65847755 32.3487395 46.125 38.3125 C45.13040236 48.35514361 43.11959243 58.14286626 41 68 C35.06 68 29.12 68 23 68 C21.0814553 60.1279444 19.99270235 52.21586467 18.9375 44.1875 C18.59524963 41.59726533 18.24948449 39.00755883 17.90234375 36.41796875 C17.75273193 35.28125732 17.60312012 34.1445459 17.44897461 32.97338867 C17.08807206 30.58326785 16.60121412 28.33468218 16 26 C15.93451508 24.41788427 15.91421619 22.83329919 15.9375 21.25 C15.94652344 20.45078125 15.95554687 19.6515625 15.96484375 18.828125 C15.97644531 18.22484375 15.98804688 17.6215625 16 17 C15.34 17 14.68 17 14 17 C14 33.83 14 50.66 14 68 C9.38 68 4.76 68 0 68 C0 45.56 0 23.12 0 0 Z " fill="#FBF4F4" transform="translate(413,42)"/>
<path d="M0 0 C31 0 31 0 36 4 C39.55605329 9.20343552 39.43820169 14.0701882 39.3984375 20.1484375 C39.40130768 21.11979645 39.40417786 22.0911554 39.40713501 23.09194946 C39.4091709 25.14105819 39.40367439 27.19018657 39.39111328 29.23925781 C39.37508803 32.3578697 39.3909605 35.4751788 39.41015625 38.59375 C39.40817305 40.59114867 39.4043278 42.58854653 39.3984375 44.5859375 C39.40754654 45.97224869 39.40754654 45.97224869 39.4168396 47.38656616 C39.35368816 53.26973813 38.81875449 57.77432882 36 63 C28 68 28 68 0 68 C0 45.56 0 23.12 0 0 Z " fill="#FBF6F6" transform="translate(242,42)"/>
<path d="M0 0 C31.48780488 0 31.48780488 0 38 5.5625 C41.85356232 10.25902908 41.21852505 14.43848742 41.25 20.3125 C41.270625 21.26318359 41.29125 22.21386719 41.3125 23.19335938 C41.36174361 32.00180979 41.36174361 32.00180979 38 36 C35.35582586 37.73523928 34.21534057 38 31 38 C31 38.66 31 39.32 31 40 C32.093125 40.268125 33.18625 40.53625 34.3125 40.8125 C39.07045139 42.34472163 39.07045139 42.34472163 41 45 C41.34057617 47.54370117 41.34057617 47.54370117 41.29296875 50.54296875 C41.2784668 52.15268555 41.2784668 52.15268555 41.26367188 53.79492188 C41.23853516 54.91447266 41.21339844 56.03402344 41.1875 57.1875 C41.16719727 58.88422852 41.16719727 58.88422852 41.14648438 60.61523438 C41.11110305 63.41035882 41.05729579 66.20523889 41 69 C35.72 69 30.44 69 25 69 C24.67 61.74 24.34 54.48 24 47 C21.36 46.67 18.72 46.34 16 46 C16 53.59 16 61.18 16 69 C10.72 69 5.44 69 0 69 C0 46.23 0 23.46 0 0 Z " fill="#FAF2F2" transform="translate(193,41)"/>
<path d="M0 0 C1.5631897 0.00785522 1.5631897 0.00785522 3.15795898 0.01586914 C4.28266602 0.0190918 5.40737305 0.02231445 6.56616211 0.02563477 C7.75016602 0.03401367 8.93416992 0.04239258 10.15405273 0.05102539 C11.34192383 0.05553711 12.52979492 0.06004883 13.75366211 0.06469727 C16.69967499 0.07652864 19.64558954 0.09301252 22.59155273 0.11352539 C24.026569 4.84003692 25.05183563 9.41347109 25.77514648 14.31274414 C25.87532074 14.98175751 25.975495 15.65077087 26.07870483 16.34005737 C26.40002605 18.49306833 26.71477156 20.64697653 27.02905273 22.80102539 C27.24897678 24.28862929 27.46927513 25.7761779 27.68994141 27.26367188 C28.01891581 29.48266769 28.34740002 31.70172712 28.67384338 33.9210968 C29.28909962 38.10077163 29.92370594 42.27656418 30.58374023 46.44946289 C30.72497314 47.35092041 30.86620605 48.25237793 31.01171875 49.18115234 C31.26304341 50.77933948 31.51837117 52.37690536 31.77880859 53.97363281 C31.94328491 55.03481323 31.94328491 55.03481323 32.11108398 56.11743164 C32.20494385 56.70339111 32.29880371 57.28935059 32.39550781 57.89306641 C32.69518641 61.28730908 32.59155273 64.70607904 32.59155273 68.11352539 C27.31155273 68.11352539 22.03155273 68.11352539 16.59155273 68.11352539 C16.26155273 63.16352539 15.93155273 58.21352539 15.59155273 53.11352539 C12.29155273 53.11352539 8.99155273 53.11352539 5.59155273 53.11352539 C4.93155273 58.39352539 4.27155273 63.67352539 3.59155273 69.11352539 C-1.68844727 69.11352539 -6.96844727 69.11352539 -12.40844727 69.11352539 C-11.95207307 65.55076416 -11.49380845 61.98827229 -11.03344727 58.42602539 C-10.89624268 57.36254883 -10.75903809 56.29907227 -10.61767578 55.20336914 C-9.93861755 49.99075089 -9.22275568 44.79721673 -8.34594727 39.61352539 C-7.21020664 32.59258333 -6.71139054 25.50913727 -6.19335938 18.42016602 C-4.77517668 0.22508435 -4.77517668 0.22508435 0 0 Z " fill="#FAF2F3" transform="translate(154.408447265625,40.886474609375)"/>
<path d="M0 0 C8.25 0 16.5 0 25 0 C27.25086551 7.87802929 27.25086551 7.87802929 27.7109375 11.0390625 C27.87360107 12.13637695 27.87360107 12.13637695 28.03955078 13.25585938 C28.15024902 14.03767578 28.26094727 14.81949219 28.375 15.625 C28.4972998 16.46095703 28.61959961 17.29691406 28.74560547 18.15820312 C29.54046906 23.64069859 30.29465287 29.12870132 31.046875 34.6171875 C31.22557129 35.92091309 31.40426758 37.22463867 31.58837891 38.56787109 C31.94234407 41.16157576 32.29364038 43.75564623 32.64208984 46.35009766 C32.80402832 47.54425293 32.9659668 48.7384082 33.1328125 49.96875 C33.27605957 51.03544922 33.41930664 52.10214844 33.56689453 53.20117188 C33.92655756 55.52539789 34.41953331 57.72579987 35 60 C35.06548492 61.58211573 35.08578381 63.16670081 35.0625 64.75 C35.05347656 65.54921875 35.04445313 66.3484375 35.03515625 67.171875 C35.02355469 67.77515625 35.01195312 68.3784375 35 69 C32.52076199 69.02685095 30.0418116 69.04676547 27.5625 69.0625 C26.85544922 69.07087891 26.14839844 69.07925781 25.41992188 69.08789062 C23.61306441 69.09653588 21.80612397 69.05220011 20 69 C17.94077598 66.94077598 18.58572421 62.78291876 18.4375 59.9375 C18.39431641 59.17888672 18.35113281 58.42027344 18.30664062 57.63867188 C18.20026367 55.75934562 18.09960066 53.87969756 18 52 C14.37 52 10.74 52 7 52 C7.020625 53.340625 7.04125 54.68125 7.0625 56.0625 C7.12694687 60.25154649 6.61253991 63.71222065 6 68 C0.72 68 -4.56 68 -10 68 C-9.25070376 60.79653837 -8.25445481 53.64712782 -7.1875 46.484375 C-6.92682739 44.7233847 -6.92682739 44.7233847 -6.66088867 42.92681885 C-6.29522316 40.45923345 -5.92875436 37.99176698 -5.56152344 35.52441406 C-4.99975736 31.74836902 -4.44110368 27.9718727 -3.8828125 24.1953125 C-3.52622647 21.79163924 -3.16946183 19.38799248 -2.8125 16.984375 C-2.64580811 15.85723083 -2.47911621 14.73008667 -2.30737305 13.56878662 C-2.15051025 12.5170929 -1.99364746 11.46539917 -1.83203125 10.38183594 C-1.69514893 9.46078064 -1.5582666 8.53972534 -1.41723633 7.59075928 C-1.00797626 5.04952727 -0.50479828 2.5239914 0 0 Z " fill="#FBF5F6" transform="translate(372,41)"/>
<path d="M0 0 C0.88880859 0.00966797 1.77761719 0.01933594 2.69335938 0.02929688 C6.57124608 0.09630769 10.06412134 0.25378949 13.8125 1.3125 C13.8125 1.9725 13.8125 2.6325 13.8125 3.3125 C14.410625 3.56 15.00875 3.8075 15.625 4.0625 C18.26910862 5.57341921 19.2818249 6.66860664 20.8125 9.3125 C21.21103734 14.00992683 20.94370849 18.58899444 20.8125 23.3125 C15.5325 23.3125 10.2525 23.3125 4.8125 23.3125 C4.8125 19.6825 4.8125 16.0525 4.8125 12.3125 C2.1725 12.3125 -0.4675 12.3125 -3.1875 12.3125 C-2.8575 27.1625 -2.5275 42.0125 -2.1875 57.3125 C0.4525 57.3125 3.0925 57.3125 5.8125 57.3125 C5.8125 53.3525 5.8125 49.3925 5.8125 45.3125 C4.1625 45.3125 2.5125 45.3125 0.8125 45.3125 C0.8125 41.0225 0.8125 36.7325 0.8125 32.3125 C7.4125 32.3125 14.0125 32.3125 20.8125 32.3125 C20.95099576 36.31605334 21.07015819 40.31344039 21.14208984 44.31811523 C21.17209295 45.67712697 21.21291185 47.03594781 21.26513672 48.39428711 C21.74198508 61.12426837 21.74198508 61.12426837 18.0390625 65.68359375 C13.47150424 70.21704409 7.59029062 69.52534875 1.5625 69.5625 C0.33080078 69.5934375 0.33080078 69.5934375 -0.92578125 69.625 C-6.17057869 69.65824753 -11.80011936 69.49530399 -16.1875 66.3125 C-20.06670325 60.85422105 -19.606113 55.16805521 -19.55078125 48.74609375 C-19.55127975 47.63444351 -19.55177826 46.52279327 -19.55229187 45.37745667 C-19.54995667 43.03327644 -19.54026096 40.68909346 -19.52368164 38.3449707 C-19.50005961 34.7590492 -19.50312902 31.17387035 -19.50976562 27.58789062 C-19.50418943 25.30728724 -19.49707992 23.02668698 -19.48828125 20.74609375 C-19.48919266 19.67515976 -19.49010406 18.60422577 -19.49104309 17.50083923 C-19.48151108 16.49952469 -19.47197906 15.49821014 -19.4621582 14.46655273 C-19.45755081 13.5897435 -19.45294342 12.71293427 -19.44819641 11.80955505 C-19.15068822 8.95990197 -18.47602601 6.86969906 -17.1875 4.3125 C-11.56469866 -0.00198939 -6.92738747 -0.22904661 0 0 Z " fill="#FBF5F5" transform="translate(336.1875,40.6875)"/>
<path d="M0 0 C0.97646484 -0.00708984 1.95292969 -0.01417969 2.95898438 -0.02148438 C9.38930178 0.03518961 13.94018457 0.68829145 18.92578125 5.078125 C20.68129049 8.7218624 20.37882189 12.20393087 20.25 16.1875 C20.22969727 17.37666016 20.22969727 17.37666016 20.20898438 18.58984375 C20.17375223 20.53935564 20.11994821 22.48851626 20.0625 24.4375 C15.1125 24.4375 10.1625 24.4375 5.0625 24.4375 C4.83463542 21.86588542 4.60677083 19.29427083 4.37890625 16.72265625 C4.30205024 14.47590268 4.30205024 14.47590268 3.0625 13.4375 C1.4125 13.4375 -0.2375 13.4375 -1.9375 13.4375 C-1.9375 27.6275 -1.9375 41.8175 -1.9375 56.4375 C0.3725 56.4375 2.6825 56.4375 5.0625 56.4375 C5.0625 52.4775 5.0625 48.5175 5.0625 44.4375 C9.6825 44.4375 14.3025 44.4375 19.0625 44.4375 C19.17079314 47.33434158 19.24993954 50.22711019 19.3125 53.125 C19.36277344 54.34993164 19.36277344 54.34993164 19.4140625 55.59960938 C19.47809553 59.55364882 19.37240455 61.87893394 17.421875 65.39453125 C10.95944904 70.99030737 2.05167663 69.94936055 -6 69.58105469 C-10.02676773 69.28270042 -12.48611095 68.57736121 -15.9375 66.4375 C-19.30105169 60.52252573 -19.37695794 55.19986922 -19.3359375 48.5 C-19.33880768 47.46109619 -19.34167786 46.42219238 -19.34463501 45.35180664 C-19.34666937 43.16324313 -19.34118362 40.97466117 -19.32861328 38.78613281 C-19.31255125 35.44815166 -19.32848397 32.11138127 -19.34765625 28.7734375 C-19.34567371 26.64062234 -19.34182981 24.50780794 -19.3359375 22.375 C-19.34201019 21.38314697 -19.34808289 20.39129395 -19.3543396 19.36938477 C-19.28483157 12.47572838 -18.46636844 7.47904353 -13.93359375 2.02734375 C-9.3667703 -0.39599021 -5.08767912 -0.10369366 0 0 Z " fill="#FCF8F8" transform="translate(116.9375,40.5625)"/>
<path d="M0 0 C9.9 0 19.8 0 30 0 C30 4.29 30 8.58 30 13 C25.38 13 20.76 13 16 13 C16 17.95 16 22.9 16 28 C20.29 28 24.58 28 29 28 C29 31.96 29 35.92 29 40 C24.71 40 20.42 40 16 40 C16 45.61 16 51.22 16 57 C20.95 57 25.9 57 31 57 C31 60.63 31 64.26 31 68 C20.77 68 10.54 68 0 68 C0 45.56 0 23.12 0 0 Z " fill="#FAF2F3" transform="translate(486,41)"/>
<path d="M0 0 C0.98662955 -0.00115384 1.97325909 -0.00230769 2.98978651 -0.0034965 C6.33401444 -0.00616763 9.67819534 -0.00163692 13.02242088 0.00279331 C15.42890572 0.00235771 17.83539051 0.00148301 20.24187505 0.00020415 C25.49367339 -0.00157251 30.74545733 -0.0002183 35.99725342 0.00384235 C43.80654817 0.00986373 51.61583576 0.01017943 59.42513241 0.00930037 C72.55997724 0.0079847 85.69481705 0.01133456 98.82966042 0.01731777 C111.84005445 0.02322914 124.85044639 0.02708257 137.86084175 0.02817059 C138.66894444 0.02823933 139.47704714 0.02830806 140.30963779 0.02837889 C144.41336606 0.02871721 148.51709432 0.0290186 152.62082259 0.02930576 C181.70865943 0.03140774 210.79649354 0.03814945 239.88432884 0.04760838 C268.14767505 0.0567886 296.41102051 0.06387428 324.6743679 0.06811619 C325.98052522 0.06831348 325.98052522 0.06831348 327.31306955 0.06851475 C336.05749246 0.06983324 344.80191538 0.07110906 353.5463383 0.07235361 C371.36069253 0.07489002 389.17504671 0.07771127 406.98940086 0.08070469 C407.80852633 0.08084198 408.62765179 0.08097927 409.47159923 0.08112072 C464.19739306 0.09032572 518.92318534 0.10619218 573.64897728 0.12304783 C573.97897728 0.78304783 574.30897728 1.44304783 574.64897728 2.12304783 C572.79766618 2.12451304 572.79766618 2.12451304 570.90895486 2.12600785 C516.53531993 2.16923812 462.16168914 2.21616358 407.7880764 2.28202915 C406.9653419 2.28302472 406.14260741 2.28402028 405.29494156 2.28504602 C387.41622443 2.30670277 369.53750819 2.32902534 351.65879275 2.35203411 C342.89152369 2.36331298 334.12425444 2.37444466 325.35698509 2.385499 C324.48452 2.38660157 323.6120549 2.38770413 322.71315147 2.38884011 C294.41605829 2.42453114 266.11896631 2.4504966 237.82185869 2.47143751 C208.75147365 2.49300192 179.68111522 2.52434022 150.61075461 2.56803896 C146.50809596 2.57420152 142.40543716 2.58025194 138.30277824 2.58623409 C137.49528806 2.58741497 136.68779787 2.58859586 135.85583828 2.58981252 C122.83896411 2.60855977 109.82210271 2.61695343 96.8052167 2.62150907 C83.730061 2.62630484 70.65495419 2.64192771 57.57982472 2.66871349 C49.80439123 2.68431021 42.02905407 2.69149451 34.25360579 2.68681712 C28.45841575 2.68424289 22.6633296 2.69716766 16.86816809 2.71628334 C14.51549395 2.72158392 12.16280188 2.72175229 9.81012776 2.71644346 C6.62711157 2.70998911 3.44468022 2.72173987 0.26171303 2.73828697 C-0.66471666 2.73201028 -1.59114634 2.72573358 -2.54564965 2.71926668 C-7.48377461 2.73632794 -7.48377461 2.73632794 -11.9518187 4.64709538 C-12.41355603 5.13415969 -12.87529335 5.621224 -13.35102272 6.12304783 C-10.74993531 -1.12283852 -7.0739687 -0.01998046 0 0 Z " fill="#293C77" transform="translate(26.351022720336914,12.876952171325684)"/>
<path d="M0 0 C0 1.98 0 3.96 0 6 C-203.94 6 -407.88 6 -618 6 C-618 4.35 -618 2.7 -618 1 C-617.219757 1.48715597 -616.439514 1.97431193 -615.63562727 2.4762302 C-610.89162456 4.46454405 -606.91990809 4.41629659 -601.82996368 4.38031673 C-600.29007633 4.38730661 -600.29007633 4.38730661 -598.71908015 4.3944377 C-595.26282738 4.40643348 -591.80696439 4.39697437 -588.35070801 4.38768005 C-585.85429917 4.39185094 -583.35789222 4.3973271 -580.86148882 4.40399987 C-575.42541894 4.41547275 -569.98946876 4.41757316 -564.55339241 4.41144943 C-556.46985308 4.40236761 -548.38639373 4.4103829 -540.30286054 4.42174067 C-525.86659981 4.44142312 -511.43037496 4.44375202 -496.99410401 4.43854547 C-484.36081563 4.43399133 -471.72754146 4.4345837 -459.09425354 4.44038582 C-457.40077044 4.44114268 -455.70728733 4.44189866 -454.01380423 4.44265376 C-451.46200376 4.44379893 -448.9102033 4.44494881 -446.35840285 4.44611301 C-422.62942435 4.45682046 -398.90045059 4.46154067 -375.17147064 4.45364285 C-374.27668759 4.45334567 -373.38190454 4.4530485 -372.46000685 4.45274232 C-365.19335196 4.45029329 -357.92669712 4.44768175 -350.66004229 4.44505819 C-322.30898357 4.43495373 -293.95798406 4.44331394 -265.60693359 4.46655273 C-233.76642981 4.49260944 -201.92596168 4.50547764 -170.08544683 4.49836498 C-166.69221338 4.4976489 -163.29897992 4.49697452 -159.90574646 4.49632454 C-158.65246271 4.49606983 -158.65246271 4.49606983 -157.37386009 4.49580997 C-144.74740061 4.49350453 -132.12097417 4.50149554 -119.49452209 4.51461601 C-105.14005676 4.52950536 -90.78566902 4.53039979 -76.43120539 4.5125451 C-68.39395402 4.50296026 -60.35688345 4.50446132 -52.31964403 4.52177979 C-46.32624862 4.53346045 -40.33307833 4.52434194 -34.33968872 4.50695742 C-31.90909182 4.50316901 -29.47847323 4.50620018 -27.04789549 4.51656907 C-23.75493764 4.52962299 -20.46295127 4.5182586 -17.17003632 4.50057125 C-15.74030858 4.51504702 -15.74030858 4.51504702 -14.28169745 4.52981523 C-8.90117421 4.47009674 -4.07358387 0 0 0 Z " fill="#2E3A6E" transform="translate(618,148)"/>
<path d="M0 0 C2.31 0 4.62 0 7 0 C9.11834035 2.11834035 8.16419113 6.84603374 8.16796875 9.77734375 C8.17129715 10.65902725 8.17462555 11.54071075 8.17805481 12.44911194 C8.18312783 14.31787594 8.18546302 16.18664904 8.18530273 18.05541992 C8.18748808 20.92186344 8.20563655 23.7879216 8.22460938 26.65429688 C8.22754339 28.46614451 8.22952813 30.27799398 8.23046875 32.08984375 C8.23765427 32.9513353 8.24483978 33.81282684 8.25224304 34.70042419 C8.2288216 40.7711784 8.2288216 40.7711784 6 43 C4.02 43 2.04 43 0 43 C0 28.81 0 14.62 0 0 Z " fill="#AA181D" transform="translate(258,54)"/>
<path d="M0 0 C0 1.98 0 3.96 0 6 C-53.79 6 -107.58 6 -163 6 C-163 5.67 -163 5.34 -163 5 C-161.80232278 4.99780016 -161.80232278 4.99780016 -160.58045006 4.99555588 C-141.1506094 4.95850109 -121.72094874 4.89950402 -102.29125023 4.81609726 C-92.89517303 4.77629119 -83.49917977 4.74390667 -74.10302734 4.72900391 C-65.91314604 4.71599551 -57.72344933 4.68905165 -49.53367198 4.64538693 C-45.19737492 4.62275379 -40.86130567 4.60709042 -36.52494431 4.60811615 C-32.44217518 4.60886167 -28.35991001 4.59095456 -24.27727127 4.55883217 C-22.7801366 4.55032374 -21.28294547 4.54858968 -19.78579712 4.55419731 C-17.73790792 4.56084519 -15.69161853 4.542902 -13.64389038 4.51898193 C-12.49902349 4.51529476 -11.35415661 4.51160759 -10.17459679 4.50780869 C-6.5160862 3.92259312 -3.18622351 0 0 0 Z " fill="#2E3A6E" transform="translate(618,148)"/>
<path d="M0 0 C2.64 0 5.28 0 8 0 C9 1 9 1 9.11352539 2.76586914 C9.10828857 3.51473389 9.10305176 4.26359863 9.09765625 5.03515625 C9.09443359 5.84404297 9.09121094 6.65292969 9.08789062 7.48632812 C9.07951172 8.33646484 9.07113281 9.18660156 9.0625 10.0625 C9.05798828 10.91650391 9.05347656 11.77050781 9.04882812 12.65039062 C9.03700373 14.76695663 9.01906769 16.88348685 9 19 C7 20 7 20 0 20 C0 13.4 0 6.8 0 0 Z " fill="#A91519" transform="translate(209,54)"/>
<path d="M0 0 C5.13352705 7.70029058 4.29043877 19.04480449 4 28 C1.69 28 -0.62 28 -3 28 C-2.88944447 24.45772899 -2.75897691 20.9164564 -2.625 17.375 C-2.5940625 16.37597656 -2.563125 15.37695312 -2.53125 14.34765625 C-2.32760852 9.22267899 -2.01388817 4.79731083 0 0 Z " fill="#BA4447" transform="translate(384,54)"/>
<path d="M0 0 C4.67556305 7.01334457 4.27913561 15.84303706 4 24 C1.69 24 -0.62 24 -3 24 C-2.52539058 18.12292167 -2.04078633 12.24639446 -1.5 6.375 C-1.4278125 5.57835937 -1.355625 4.78171875 -1.28125 3.9609375 C-1 2 -1 2 0 0 Z " fill="#B22D32" transform="translate(164,58)"/>
<path d="M0 0 C0.66 0.33 1.32 0.66 2 1 C1.85848172 3.0836309 1.71162064 5.16689938 1.5625 7.25 C1.48128906 8.41015625 1.40007812 9.5703125 1.31640625 10.765625 C1 14 1 14 0 18 C-7.92 18 -15.84 18 -24 18 C-24 16.02 -24 14.04 -24 12 C-16.41 11.67 -8.82 11.34 -1 11 C-0.67 7.37 -0.34 3.74 0 0 Z M-23 13 C-23 14.32 -23 15.64 -23 17 C-15.74 17 -8.48 17 -1 17 C-1 15.68 -1 14.36 -1 13 C-8.26 13 -15.52 13 -23 13 Z " fill="#D8181F" transform="translate(142,58)"/>
<path d="M0 0 C0.33 0 0.66 0 1 0 C1 16.17 1 32.34 1 49 C0.67 49 0.34 49 0 49 C-0.33 37.12 -0.66 25.24 -1 13 C-1.33 14.98 -1.66 16.96 -2 19 C-2.33 19 -2.66 19 -3 19 C-3.23549167 12.52397908 -2.95300439 5.90600878 0 0 Z " fill="#B73C40" transform="translate(462,61)"/>
<path d="M0 0 C1.12849365 0.7266687 1.12849365 0.7266687 2.27978516 1.46801758 C7.09410448 3.85831755 12.25842236 3.4800613 17.5234375 3.51171875 C18.62475006 3.52966995 19.72606262 3.54762115 20.86074829 3.56611633 C24.36546035 3.62013758 27.87003683 3.65408964 31.375 3.6875 C33.75652925 3.7206802 36.13804062 3.75517051 38.51953125 3.79101562 C44.34623258 3.87585944 50.17295163 3.94424404 56 4 C56 4.33 56 4.66 56 5 C37.52 5 19.04 5 0 5 C0 3.35 0 1.7 0 0 Z " fill="#313D70" transform="translate(0,149)"/>
<path d="M0 0 C0 1.98 0 3.96 0 6 C-12.87 6 -25.74 6 -39 6 C-39 5.67 -39 5.34 -39 5 C-38.0620459 4.9906543 -37.1240918 4.98130859 -36.15771484 4.97167969 C-32.65713676 4.92750562 -29.15775697 4.86582333 -25.65771484 4.79248047 C-24.14676062 4.76436218 -22.63566179 4.74310229 -21.12451172 4.72900391 C-18.94423897 4.70744551 -16.76568781 4.66073684 -14.5859375 4.609375 C-13.2767334 4.58842773 -11.9675293 4.56748047 -10.61865234 4.54589844 C-6.84385584 3.97644459 -3.21415356 0 0 0 Z " fill="#2F3C6F" transform="translate(618,148)"/>
<path d="M0 0 C0 1.98 0 3.96 0 6 C-3.3 6 -6.6 6 -10 6 C-9.01 5.34 -8.02 4.68 -7 4 C-5.96875 3.29875 -4.9375 2.5975 -3.875 1.875 C-1 0 -1 0 0 0 Z " fill="#DCDDE1" transform="translate(618,148)"/>
<path d="M0 0 C3.96 1.98 3.96 1.98 8 4 C8 4.33 8 4.66 8 5 C5.36 5 2.72 5 0 5 C0 3.35 0 1.7 0 0 Z " fill="#DCDDDF" transform="translate(0,149)"/>
<path d="M0 0 C2.29013653 3.4352048 2.17842973 4.985331 2 9 C1.01 9 0.02 9 -1 9 C-0.67 6.03 -0.34 3.06 0 0 Z " fill="#B0272B" transform="translate(384,58)"/>
<path d="M0 0 C0.66 0.33 1.32 0.66 2 1 C2 3.64 2 6.28 2 9 C1.01 8.67 0.02 8.34 -1 8 C-0.67 5.36 -0.34 2.72 0 0 Z " fill="#D58D8F" transform="translate(164,52)"/>
<path d="M0 0 C2 3 2 3 2 7 C1.01 7.33 0.02 7.66 -1 8 C-1.125 2.25 -1.125 2.25 0 0 Z " fill="#B22D32" transform="translate(164,58)"/>
</svg>
